<?xml version="1.0" standalone="no"?>
<!DOCTYPE svg PUBLIC "-//W3C//DTD SVG 20010904//EN"
 "http://www.w3.org/TR/2001/REC-SVG-20010904/DTD/svg10.dtd">
<svg version="1.0" xmlns="http://www.w3.org/2000/svg"
 width="32.000000pt" height="29.000000pt" viewBox="0 0 32.000000 29.000000"
 preserveAspectRatio="xMidYMid meet">

<g transform="translate(0.000000,29.000000) scale(0.100000,-0.100000)"
fill="#000000" stroke="none">
<path d="M74 256 c-3 -7 -4 -17 -2 -22 4 -16 -32 -74 -46 -74 -24 0 -26 -29
-4 -44 30 -21 57 -66 51 -83 -8 -20 18 -35 34 -21 7 5 33 8 58 6 33 -2 45 0
45 10 0 8 6 12 14 9 9 -4 16 3 20 17 3 13 20 37 37 54 30 29 32 52 6 52 -15 0
-51 65 -44 77 3 5 2 15 -3 23 -8 12 -13 13 -30 3 -24 -15 -86 -17 -95 -3 -9
14 -35 12 -41 -4z m34 -7 c-2 -6 -8 -10 -13 -10 -5 0 -11 4 -13 10 -2 6 4 11
13 11 9 0 15 -5 13 -11z m124 -4 c0 -5 -5 -11 -11 -13 -6 -2 -11 4 -11 13 0 9
5 15 11 13 6 -2 11 -8 11 -13z m-34 -22 c-2 -9 -16 -21 -32 -26 -24 -8 -32 -6
-43 9 -21 29 -16 34 33 34 37 0 45 -3 42 -17z m-84 -18 c8 -22 -2 -40 -30 -55
-33 -18 -41 -6 -21 35 17 37 41 46 51 20z m136 -17 c12 -20 16 -36 10 -42 -17
-17 -68 43 -55 64 11 18 25 11 45 -22z m-46 -16 c4 -11 19 -25 34 -33 15 -7
29 -14 31 -16 5 -3 -39 -73 -46 -73 -7 0 -32 33 -33 43 0 4 9 7 19 7 11 0 22
3 24 8 3 4 -26 5 -65 4 -84 -4 -106 9 -68 39 51 41 95 50 104 21z m-164 -37
c0 -8 -4 -15 -9 -15 -13 0 -22 16 -14 24 11 11 23 6 23 -9z m258 4 c-2 -6 -8
-10 -13 -10 -5 0 -11 4 -13 10 -2 6 4 11 13 11 9 0 15 -5 13 -11z m-218 -24
c7 -8 21 -15 32 -15 19 0 19 -2 6 -22 -21 -32 -31 -32 -51 1 -27 45 -17 72 13
36z m106 -32 c26 -35 17 -53 -25 -53 -48 0 -57 11 -35 45 19 29 41 32 60 8z
m-78 -54 c-5 -14 -21 -14 -26 0 -2 6 4 11 13 11 9 0 15 -5 13 -11z"/>
<path d="M140 150 c7 -4 11 -11 11 -16 -1 -5 4 -9 9 -9 6 0 10 4 9 9 0 5 4 12
11 16 6 4 -3 7 -20 7 -17 0 -26 -3 -20 -7z"/>
</g>
</svg>
